<svg width="109" height="393" viewBox="0 0 109 393" fill="none" xmlns="http://www.w3.org/2000/svg">
<rect x="59" y="364" width="13" height="29" fill="#FBFBFB"/>
<rect x="59" y="273" width="13" height="29" fill="#FBFBFB"/>
<rect x="59" y="319" width="13" height="29" fill="#FBFBFB"/>
<path d="M62.62 60.46C61.0467 60.46 59.6467 60.0667 58.42 59.28C57.2067 58.4933 56.2533 57.3533 55.56 55.86C54.88 54.3667 54.54 52.5467 54.54 50.4C54.54 48.3867 54.8467 46.56 55.46 44.92C56.0733 43.2933 56.94 41.9 58.06 40.74L60.38 42.8C59.4867 43.76 58.7733 44.86 58.24 46.1C57.72 47.34 57.46 48.7933 57.46 50.46C57.46 51.58 57.64 52.6267 58 53.6C58.3733 54.5733 58.9333 55.36 59.68 55.96C60.44 56.56 61.4 56.86 62.56 56.86C63.4533 56.86 64.2133 56.6867 64.84 56.34C65.4667 55.9933 66.02 55.38 66.5 54.5C66.9933 53.62 67.4733 52.3933 67.94 50.82C68.4733 49.0067 69.0733 47.4333 69.74 46.1C70.42 44.78 71.2533 43.7533 72.24 43.02C73.2267 42.3 74.4467 41.94 75.9 41.94C77.2733 41.94 78.4933 42.32 79.56 43.08C80.6267 43.84 81.46 44.8867 82.06 46.22C82.6733 47.5667 82.98 49.1133 82.98 50.86C82.98 52.7667 82.7067 54.42 82.16 55.82C81.6267 57.2333 80.8533 58.5133 79.84 59.66L77.58 57.62C78.46 56.6333 79.0933 55.5733 79.48 54.44C79.88 53.3067 80.08 52.1533 80.08 50.98C80.08 49.98 79.9267 49.06 79.62 48.22C79.3267 47.3933 78.88 46.7267 78.28 46.22C77.6933 45.7267 76.94 45.48 76.02 45.48C75.2333 45.48 74.5533 45.6933 73.98 46.12C73.4067 46.5467 72.88 47.2667 72.4 48.28C71.9333 49.2933 71.44 50.6733 70.92 52.42C70.5067 53.8467 69.9867 55.1667 69.36 56.38C68.7467 57.6067 67.9067 58.5933 66.84 59.34C65.7867 60.0867 64.38 60.46 62.62 60.46ZM57.44 71.9244C57.44 72.9777 57.6133 73.9577 57.96 74.8644C58.3067 75.7844 58.7467 76.631 59.28 77.4044L57.08 79.0444C56.2933 78.1244 55.6733 77.0177 55.22 75.7244C54.7667 74.431 54.54 73.1644 54.54 71.9244C54.54 69.831 54.9867 68.0444 55.88 66.5644C56.7867 65.0977 58.0533 63.9777 59.68 63.2044C61.32 62.431 63.24 62.0444 65.44 62.0444C67.5467 62.0444 69.4333 62.431 71.1 63.2044C72.78 63.991 74.1 65.1177 75.06 66.5844C76.02 68.0644 76.5 69.8577 76.5 71.9644C76.5 73.311 76.2933 74.571 75.88 75.7444C75.48 76.931 74.8733 78.0177 74.06 79.0044L71.82 77.3644C72.4467 76.471 72.9133 75.571 73.22 74.6644C73.54 73.771 73.7 72.8577 73.7 71.9244C73.7 70.111 73.02 68.6177 71.66 67.4444C70.3 66.271 68.2267 65.6844 65.44 65.6844C63.5733 65.6844 62.0467 65.951 60.86 66.4844C59.6867 67.031 58.82 67.771 58.26 68.7044C57.7133 69.651 57.44 70.7244 57.44 71.9244ZM55 81.9887L57.58 81.9887L57.58 85.2687L73.48 85.2687L73.48 81.9887L76.06 81.9887L76.06 87.8287L71.08 88.4487C72.8133 89.2621 74.1533 90.2487 75.1 91.4087C76.0467 92.5687 76.52 94.1021 76.52 96.0087C76.52 96.5954 76.4733 97.1154 76.38 97.5687C76.3 98.0354 76.1933 98.5088 76.06 98.9888L73.06 98.0088C73.18 97.5687 73.2667 97.1687 73.32 96.8087C73.3867 96.4487 73.42 96.0354 73.42 95.5687C73.42 93.9554 72.8467 92.5687 71.7 91.4087C70.5533 90.2487 68.82 89.3221 66.5 88.6287L57.58 88.6287L57.58 92.9087L55 92.9087L55 81.9887ZM68.94 95.7487L73.52 95.7487L76.06 96.0887L76.06 98.9888L68.94 98.5087L68.94 95.7487ZM76.5 109.193C76.5 111.18 76.0467 112.84 75.14 114.173C74.2467 115.52 72.98 116.526 71.34 117.193C69.7 117.873 67.7667 118.213 65.54 118.213C63.3933 118.213 61.4933 117.866 59.84 117.173C58.1867 116.48 56.8867 115.46 55.94 114.113C55.0067 112.78 54.54 111.126 54.54 109.153C54.54 107.18 54.9933 105.52 55.9 104.173C56.8067 102.826 58.08 101.806 59.72 101.113C61.3733 100.433 63.3 100.093 65.5 100.093C67.6733 100.093 69.5867 100.44 71.24 101.133C72.8933 101.826 74.18 102.846 75.1 104.193C76.0333 105.553 76.5 107.22 76.5 109.193ZM73.76 109.193C73.76 107.38 73.0867 106.006 71.74 105.073C70.4067 104.153 68.3267 103.693 65.5 103.693C62.7267 103.693 60.6667 104.146 59.32 105.053C57.9733 105.973 57.3 107.34 57.3 109.153C57.3 110.966 57.9733 112.326 59.32 113.233C60.6667 114.153 62.74 114.613 65.54 114.613C68.34 114.613 70.4067 114.16 71.74 113.253C73.0867 112.346 73.76 110.993 73.76 109.193ZM84.54 128.757L60.2 128.757C59.16 128.757 58.42 129.077 57.98 129.717C57.5533 130.371 57.34 131.211 57.34 132.237C57.34 132.877 57.4067 133.484 57.54 134.057C57.6733 134.631 57.8533 135.204 58.08 135.777L55.62 136.677C55.34 136.104 55.0933 135.391 54.88 134.537C54.6533 133.697 54.54 132.744 54.54 131.677C54.54 129.811 55.0533 128.297 56.08 127.137C57.12 125.977 58.5533 125.397 60.38 125.397L81.88 125.397L81.88 118.937L84.54 118.937L84.54 128.757ZM84.54 148.142L60.2 148.142C59.16 148.142 58.42 148.462 57.98 149.102C57.5533 149.755 57.34 150.595 57.34 151.622C57.34 152.262 57.4067 152.869 57.54 153.442C57.6733 154.015 57.8533 154.589 58.08 155.162L55.62 156.062C55.34 155.489 55.0933 154.775 54.88 153.922C54.6533 153.082 54.54 152.129 54.54 151.062C54.54 149.195 55.0533 147.682 56.08 146.522C57.12 145.362 58.5533 144.782 60.38 144.782L81.88 144.782L81.88 138.322L84.54 138.322L84.54 148.142ZM84.96 191.311L84.54 194.671L55 194.671L55 191.731L57.78 191.411C56.66 190.624 55.84 189.717 55.32 188.691C54.8 187.677 54.54 186.591 54.54 185.431C54.54 183.604 55 182.097 55.92 180.911C56.84 179.724 58.12 178.844 59.76 178.271C61.4133 177.697 63.3267 177.411 65.5 177.411C67.6067 177.411 69.4867 177.737 71.14 178.391C72.8067 179.044 74.1133 179.984 75.06 181.211C76.02 182.451 76.5 183.937 76.5 185.671C76.5 186.884 76.2867 187.951 75.86 188.871C75.4467 189.791 74.8333 190.604 74.02 191.311L84.96 191.311ZM73.8 186.551C73.8 184.791 73.1133 183.437 71.74 182.491C70.3667 181.544 68.2867 181.071 65.5 181.071C63.6867 181.071 62.1667 181.264 60.94 181.651C59.7133 182.037 58.7933 182.604 58.18 183.351C57.5667 184.111 57.26 185.037 57.26 186.131C57.26 187.331 57.6 188.351 58.28 189.191C58.96 190.044 59.7267 190.751 60.58 191.311L71.1 191.311C71.9533 190.737 72.6133 190.044 73.08 189.231C73.56 188.417 73.8 187.524 73.8 186.551ZM76.5 206.115C76.5 208.102 76.0467 209.762 75.14 211.095C74.2467 212.442 72.98 213.448 71.34 214.115C69.7 214.795 67.7667 215.135 65.54 215.135C63.3933 215.135 61.4933 214.788 59.84 214.095C58.1867 213.402 56.8867 212.382 55.94 211.035C55.0067 209.702 54.54 208.048 54.54 206.075C54.54 204.102 54.9933 202.442 55.9 201.095C56.8067 199.748 58.08 198.728 59.72 198.035C61.3733 197.355 63.3 197.015 65.5 197.015C67.6733 197.015 69.5867 197.362 71.24 198.055C72.8933 198.748 74.18 199.768 75.1 201.115C76.0333 202.475 76.5 204.142 76.5 206.115ZM73.76 206.115C73.76 204.302 73.0867 202.928 71.74 201.995C70.4067 201.075 68.3267 200.615 65.5 200.615C62.7267 200.615 60.6667 201.068 59.32 201.975C57.9733 202.895 57.3 204.262 57.3 206.075C57.3 207.888 57.9733 209.248 59.32 210.155C60.6667 211.075 62.74 211.535 65.54 211.535C68.34 211.535 70.4067 211.082 71.74 210.175C73.0867 209.268 73.76 207.915 73.76 206.115ZM55 233.079L55 228.319L70.46 225.599L55 222.639L55 217.999L76.06 214.159L76.06 217.599L57.08 220.279L73.38 223.639L73.38 227.619L57.08 230.799L76.06 233.479L76.06 236.759L55 233.079ZM55 236.864L76.06 236.864L76.06 239.724L73.14 239.984C74.22 240.837 75.0467 241.904 75.62 243.184C76.2067 244.477 76.5 245.73 76.5 246.944C76.5 249.01 75.9533 250.51 74.86 251.444C73.7667 252.39 72.2467 252.864 70.3 252.864L55 252.864L55 249.504L67.82 249.504C69.26 249.504 70.42 249.424 71.3 249.264C72.1933 249.104 72.84 248.77 73.24 248.264C73.6533 247.757 73.86 246.97 73.86 245.904C73.86 245.077 73.68 244.297 73.32 243.564C72.96 242.844 72.5067 242.197 71.96 241.624C71.4267 241.064 70.8867 240.597 70.34 240.224L55 240.224L55 236.864Z" fill="#FBFBFB"/>
</svg>
