<svg width="1835" height="863" viewBox="0 0 1835 863" fill="none" xmlns="http://www.w3.org/2000/svg">
<g clip-path="url(#clip0_8_2)">
<rect x="682.5" y="180.786" width="820.048" height="466.524" rx="82.5" stroke="white" stroke-width="15"/>
<path d="M1003 407.375C1003 386.375 1000.78 369.575 996.35 356.975C991.917 344.375 986.083 334.925 978.85 328.625C971.617 322.325 963.683 318.125 955.05 316.025C946.533 313.925 938.133 312.875 929.85 312.875H901.5V504.675H930.2C938.833 504.675 947.408 503.333 955.925 500.65C964.558 497.85 972.433 492.95 979.55 485.95C986.667 478.833 992.325 468.975 996.525 456.375C1000.84 443.658 1003 427.325 1003 407.375ZM1035.38 407.375C1035.38 427.442 1033.22 444.592 1028.9 458.825C1024.7 472.942 1018.93 484.608 1011.58 493.825C1004.23 503.042 995.825 510.217 986.375 515.35C977.042 520.367 967.183 523.925 956.8 526.025C946.533 528.008 936.442 529 926.525 529H871.225V288.025H922.675C936.792 288.025 950.5 289.6 963.8 292.75C977.217 295.9 989.292 301.733 1000.03 310.25C1010.88 318.65 1019.45 330.667 1025.75 346.3C1032.17 361.933 1035.38 382.292 1035.38 407.375ZM1064.99 312.875V394.075H1154.24V419.1H1064.99V504.675H1174.54V529H1034.54V288.025H1171.39L1167.89 312.875H1064.99ZM1244.93 494.525L1310.03 288.025H1340.65L1259.98 529H1228.48L1147.8 288.025H1180.53L1244.93 494.525Z" fill="white"/>
<path d="M415 349C415 331.167 411.5 317.083 404.5 306.75C397.5 296.25 387.917 288.75 375.75 284.25C363.583 279.583 349.667 277.25 334 277.25H284.25V424.25H332.25C348.417 424.25 362.667 422.083 375 417.75C387.333 413.25 397.083 405.583 404.25 394.75C411.417 383.75 415 368.5 415 349ZM461.5 348.5C461.5 375.333 455.75 396.833 444.25 413C432.917 429.167 417.25 440.917 397.25 448.25C377.25 455.583 354.25 459.25 328.25 459.25H284.25V587H240.75V242.75H328.75C369.75 242.75 402.083 251.417 425.75 268.75C449.583 285.917 461.5 312.5 461.5 348.5ZM531.555 278.25V394.25H659.055V430H531.555V552.25H688.055V587H488.055V242.75H683.555L678.555 278.25H531.555Z" fill="white"/>
</g>
<defs>
<clipPath id="clip0_8_2">
<rect width="1835" height="863" fill="white"/>
</clipPath>
</defs>
</svg>
